<?xml version="1.0" encoding="UTF-8" standalone="no"?>
<!-- Generator: Adobe Illustrator 18.1.1, SVG Export Plug-In . SVG Version: 6.00 Build 0)  -->

<svg
   xmlns:dc="http://purl.org/dc/elements/1.1/"
   xmlns:cc="http://creativecommons.org/ns#"
   xmlns:rdf="http://www.w3.org/1999/02/22-rdf-syntax-ns#"
   xmlns:svg="http://www.w3.org/2000/svg"
   xmlns="http://www.w3.org/2000/svg"
   xmlns:sodipodi="http://sodipodi.sourceforge.net/DTD/sodipodi-0.dtd"
   xmlns:inkscape="http://www.inkscape.org/namespaces/inkscape"
   version="1.1"
   id="Design"
   x="0px"
   y="0px"
   viewBox="0 0 960 560"
   enable-background="new 0 0 960 560"
   xml:space="preserve"
   inkscape:version="0.91 r13725"
   sodipodi:docname="DevitoLogo_v7.svg"><metadata
     id="metadata3410"><rdf:RDF><cc:Work
         rdf:about=""><dc:format>image/svg+xml</dc:format><dc:type
           rdf:resource="http://purl.org/dc/dcmitype/StillImage" /><dc:title /></cc:Work></rdf:RDF></metadata><defs
     id="defs3408" /><sodipodi:namedview
     pagecolor="#ffffff"
     bordercolor="#666666"
     borderopacity="1"
     objecttolerance="10"
     gridtolerance="10"
     guidetolerance="10"
     inkscape:pageopacity="0"
     inkscape:pageshadow="2"
     inkscape:window-width="1920"
     inkscape:window-height="1016"
     id="namedview3406"
     showgrid="false"
     inkscape:zoom="1.0442452"
     inkscape:cx="827.50324"
     inkscape:cy="230.40608"
     inkscape:window-x="1920"
     inkscape:window-y="27"
     inkscape:window-maximized="1"
     inkscape:current-layer="Design" /><path
     d="m 248.79685,261.3058 c -2,6.4 -3.9,12.8 -5.9,19.2 1.3,-1 2.7,-2 4,-3.1 -2.9,0.2 -5.8,0.4 -8.6,0.6 -1.7,0.1 -3.7,1.2 -4,3.1 -3.4,20.5 -6.8,41 -10.3,61.5 2.7,0.4 5.4,0.7 8.2,1.1 -2,-36.1 -4,-72.2 -6,-108.2 -0.2,-4.4 -7.5,-6 -8.2,-1.1 -4.3,30.5 -8.6,61 -13,91.5 2.7,0.4 5.4,0.7 8.2,1.1 -1.9,-21.1 -4.3,-42.3 -4.1,-63.5 0.2,-22.2 1.1,-44.4 2,-66.6 0.2,-5.4 -8,-5.3 -8.3,0 -1,16.2 -2.4,32.7 -5.6,48.6 -0.8,4 -1.6,8.1 -3.1,11.9 -1.3,3.2 -1.6,2.4 -3.1,4 -2.8,3.1 -3.4,5.7 -4,9.8 -2.2,16.1 -1.8,32.8 -1.8,49 0,21.1 0.3,42.1 0.8,63.2 0.3,12.5 0.6,24.9 1,37.4 2.7,-0.4 5.4,-0.7 8.2,-1.1 -8.2,-42.2 -13.4,-85.7 -13.4,-128.7 0,-37.4 3.7,-75 6.2,-112.3 0.8,-12.2 1.7,-24.4 2.5,-36.6 0.3,-4.7 -7.2,-5.7 -8.2,-1.1 -7.8,35 -14.7,70.4 -19.3,105.9 -3.6,27.9 -3,55.7 -2,83.7 1.2,32.9 3.3,65.7 6.3,98.5 1.5,16.4 3.1,32.7 5.2,49 2.7,-0.4 5.4,-0.7 8.2,-1.1 -11.2,-28.2 -16.7,-59.4 -20.8,-89.3 -9.6,-70.9 -5.2,-142.9 4.1,-213.5 2.5,-18.7 5.2,-37.5 8.9,-56.1 1,-5.2 -6.4,-7.4 -8,-2.2 -9.6,29.9 -17.4,60.6 -23.5,91.5 -8.4,42 -8.6,84 -12.2,126.5 2.7,-0.4 5.4,-0.7 8.2,-1.1 -3,-8.3 -6,-16.5 -9,-24.8 -0.7,-1.8 -2.1,-3 -4,-3.1 -2.4,-0.1 -4.8,-0.1 -7.1,-0.2 1.4,1.4 2.8,2.8 4.2,4.2 -0.4,-12.6 -0.9,-25.3 -1.3,-37.9 -0.2,-4.3 -5.4,-5.4 -7.8,-2.1 -2.6,3.7 -5.2,7.4 -7.9,11.1 1.2,-0.7 2.4,-1.4 3.6,-2.1 -3.8,-0.1 -7.6,-0.3 -11.399995,-0.4 -5.4,-0.2 -5.4,8.1 0,8.3 4.299995,0.1 10.599995,1.7 14.299995,-0.8 3.4,-2.4 6.1,-8.5 8.5,-11.9 -2.6,-0.7 -5.2,-1.4 -7.8,-2.1 0.4,12.6 0.9,25.3 1.3,37.9 0.1,2.3 1.8,4.1 4.2,4.2 2.4,0.1 4.8,0.1 7.1,0.2 -1.3,-1 -2.7,-2 -4,-3.1 3,8.3 6,16.5 9,24.8 1.6,4.5 7.8,3.6 8.2,-1.1 1.5,-18.1 2.6,-36.3 3.1,-54.5 0.7,-24.4 4.4,-48.5 9.3,-72.4 6.1,-29.9 13.6,-59.8 23,-88.9 -2.7,-0.7 -5.4,-1.5 -8,-2.2 -9.8,49.6 -15.3,100.5 -17.8,150.9 -3,60.6 0.8,122 15.9,180.9 2.7,10.6 5.6,21.3 9.6,31.4 1.6,3.9 8.8,4 8.2,-1.1 -5.5,-43.2 -8.7,-86.7 -10.7,-130.2 -1.4,-29.7 -3.2,-59.9 -0.1,-89.5 2.5,-24 6.8,-47.9 11.4,-71.6 2.8,-14.6 5.8,-29.2 9,-43.7 -2.7,-0.4 -5.4,-0.7 -8.2,-1.1 -2.2,30.6 -4.3,61.2 -6.2,91.9 -2.8,46 -2.7,91 3.1,136.9 2.2,17.1 4.7,34.2 7.9,51.1 0.9,4.6 8.3,3.5 8.2,-1.1 -1,-30.8 -1.7,-61.7 -1.8,-92.5 -0.1,-17.6 -0.4,-35.4 1.3,-53 0.2,-1.7 1.2,-4.6 0.9,-6.3 -0.1,-0.3 0.6,-2.1 0.4,-1.4 -0.2,0.6 -2.2,2.4 0.3,0.5 5.1,-3.8 6.6,-11.4 7.9,-17.2 4.1,-17.8 5.6,-36.4 6.7,-55.4 -2.8,0 -5.5,0 -8.3,0 -0.9,23 -1.9,45 -2,67.2 -0.2,21.2 2.2,42.8 4.1,63.8 0.4,4.3 7.5,6.3 8.2,1.3 4.3,-30.5 8.6,-60.9 13,-91.4 -2.7,-0.4 -5.4,-0.7 -8.2,-1.1 2,36.1 4,72.2 6,108.3 0.2,4.4 7.4,6 8.2,1.1 3.4,-20.5 6.8,-41 10.3,-61.5 -1.3,1 -2.7,2 -4,3.1 2.9,-0.2 5.8,-0.4 8.6,-0.6 1.9,-0.1 3.4,-1.2 4,-3.1 2,-6.4 3.9,-12.8 5.9,-19.2 1.6,-5 -6.4,-7.2 -7.9,-2 l 0,0 z"
     id="path3402"
     inkscape:connector-curvature="0"
     style="fill:#55c6a3" /><text
     xml:space="preserve"
     style="font-style:normal;font-variant:normal;font-weight:normal;font-stretch:normal;font-size:38.46500015px;line-height:110.00000238%;font-family:NexaRegular;-inkscape-font-specification:'NexaRegular, Normal';text-align:start;letter-spacing:0px;word-spacing:0px;writing-mode:lr-tb;text-anchor:start;fill:#000000;fill-opacity:1;stroke:none;stroke-width:1px;stroke-linecap:butt;stroke-linejoin:miter;stroke-opacity:1"
     x="275.65799"
     y="276.31088"
     id="text3431"
     sodipodi:linespacing="110%"
     transform="scale(0.91885255,1.0883139)"><tspan
       sodipodi:role="line"
       x="275.65799"
       y="276.31088"
       id="tspan3437">Automated</tspan><tspan
       sodipodi:role="line"
       x="275.65799"
       y="318.62238"
       id="tspan4331">High-Performance</tspan><tspan
       sodipodi:role="line"
       x="275.65799"
       y="360.9339"
       id="tspan4333">Finite Differences</tspan></text>
<flowRoot
     xml:space="preserve"
     id="flowRoot4284"
     style="fill:black;stroke:none;stroke-opacity:1;stroke-width:1px;stroke-linejoin:miter;stroke-linecap:butt;fill-opacity:1;font-family:'Gillius ADF Cd';font-style:normal;font-weight:normal;font-size:187.5px;line-height:125%;letter-spacing:0px;word-spacing:0px;-inkscape-font-specification:'Gillius ADF Cd, Condensed';font-stretch:condensed;font-variant:normal;text-anchor:start;text-align:start;writing-mode:lr;"><flowRegion
       id="flowRegion4286"><rect
         id="rect4288"
         width="95.477631"
         height="69.746071"
         x="113.76058"
         y="134.07497"
         style="-inkscape-font-specification:'Gillius ADF Cd, Condensed';font-family:'Gillius ADF Cd';font-weight:normal;font-style:normal;font-stretch:condensed;font-variant:normal;font-size:187.5px;text-anchor:start;text-align:start;writing-mode:lr;line-height:125%;" /></flowRegion><flowPara
       id="flowPara4292">O</flowPara></flowRoot><g
     transform="translate(27.763,58.911731)"
     id="g4398"><text
       transform="scale(1.2689078,0.78807932)"
       sodipodi:linespacing="125%"
       id="text3431-4"
       y="247.53798"
       x="235.60321"
       style="font-style:normal;font-variant:normal;font-weight:normal;font-stretch:condensed;font-size:117.77250671px;line-height:125%;font-family:'Gillius ADF Cd';-inkscape-font-specification:'Gillius ADF Cd, Condensed';text-align:start;letter-spacing:0px;word-spacing:0px;writing-mode:lr-tb;text-anchor:start;fill:#000000;fill-opacity:1;stroke:none;stroke-width:1px;stroke-linecap:butt;stroke-linejoin:miter;stroke-opacity:1"
       xml:space="preserve"><tspan
         y="247.53798"
         x="235.60321"
         id="tspan4282"
         sodipodi:role="line">EVITO</tspan></text>
<text
       sodipodi:linespacing="140%"
       id="text4294"
       y="193.66386"
       x="188.24667"
       style="font-style:normal;font-variant:normal;font-weight:normal;font-stretch:normal;font-size:150px;line-height:139.99999762%;font-family:NexaRegular;-inkscape-font-specification:'NexaRegular, Normal';text-align:start;letter-spacing:0px;word-spacing:0px;writing-mode:lr-tb;text-anchor:start;fill:#55c6a3;fill-opacity:1;stroke:none;stroke-width:1px;stroke-linecap:butt;stroke-linejoin:miter;stroke-opacity:1"
       xml:space="preserve"><tspan
         y="193.66386"
         x="188.24667"
         id="tspan4296"
         sodipodi:role="line">D</tspan></text>
</g><path
     inkscape:connector-curvature="0"
     id="path4377"
     d="m 262.73276,262.05563 c 352.37423,0 352.37423,0 352.37423,0"
     style="fill:none;fill-rule:evenodd;stroke:#000000;stroke-width:1.0556072px;stroke-linecap:butt;stroke-linejoin:miter;stroke-opacity:1" /></svg>
