<?xml version="1.0" encoding="UTF-8" standalone="no"?>
<!-- Created with Inkscape (http://www.inkscape.org/) -->

<svg
   xmlns:dc="http://purl.org/dc/elements/1.1/"
   xmlns:cc="http://creativecommons.org/ns#"
   xmlns:rdf="http://www.w3.org/1999/02/22-rdf-syntax-ns#"
   xmlns:svg="http://www.w3.org/2000/svg"
   xmlns="http://www.w3.org/2000/svg"
   xmlns:sodipodi="http://sodipodi.sourceforge.net/DTD/sodipodi-0.dtd"
   xmlns:inkscape="http://www.inkscape.org/namespaces/inkscape"
   width="1429.775mm"
   height="226.52026mm"
   viewBox="0 0 1221.7528 193.56383"
   version="1.1"
   id="svg8"
   inkscape:version="0.92.2 5c3e80d, 2017-08-06"
   sodipodi:docname="devito.svg"
   inkscape:export-filename="/Users/jan/Desktop/devito.png"
   inkscape:export-xdpi="96"
   inkscape:export-ydpi="96">
  <defs
     id="defs2">
    <clipPath
       clipPathUnits="userSpaceOnUse"
       id="clipPath920">
      <path
         style="fill:none;stroke:#000000;stroke-width:0.26458332px;stroke-linecap:butt;stroke-linejoin:miter;stroke-opacity:1"
         d="m 344.31084,108.79311 -358.069187,3.5278 -3.527779,335.13897 839.610866,-45.86111 C 550.09788,317.52006 383.70436,242.2608 344.31084,108.79311 Z"
         id="path922"
         inkscape:connector-curvature="0"
         sodipodi:nodetypes="ccccc" />
    </clipPath>
    <clipPath
       clipPathUnits="userSpaceOnUse"
       id="clipPath934">
      <path
         sodipodi:nodetypes="ccccc"
         inkscape:connector-curvature="0"
         id="path936"
         d="M 344.48723,92.918115 -13.581959,96.445913 -17.109739,431.58488 822.5011,385.72377 C 550.27427,301.64507 383.88075,226.3858 344.48723,92.918115 Z"
         style="fill:none;stroke:#000000;stroke-width:0.26458332px;stroke-linecap:butt;stroke-linejoin:miter;stroke-opacity:1" />
    </clipPath>
    <clipPath
       clipPathUnits="userSpaceOnUse"
       id="clipPath960">
      <path
         style="fill:none;stroke:#000000;stroke-width:0.26458332px;stroke-linecap:butt;stroke-linejoin:miter;stroke-opacity:1"
         d="M 431.09434,324.16393 78.316811,366.49729 74.789031,701.63625 914.39998,655.77514 C 626.29805,621.08532 435.21009,515.83996 431.09434,324.16393 Z"
         id="path962"
         inkscape:connector-curvature="0"
         sodipodi:nodetypes="ccccc" />
    </clipPath>
    <clipPath
       clipPathUnits="userSpaceOnUse"
       id="clipPath994">
      <rect
         style="fill:#ffffff;fill-opacity:0.55172412;stroke:none;stroke-width:80;stroke-miterlimit:4;stroke-dasharray:none;stroke-dashoffset:0;stroke-opacity:1"
         id="rect996"
         width="1221.7571"
         height="193.56383"
         x="-5.2916665"
         y="138.07367" />
    </clipPath>
  </defs>
  <sodipodi:namedview
     id="base"
     pagecolor="#ffffff"
     bordercolor="#666666"
     borderopacity="1.0"
     inkscape:pageopacity="0.0"
     inkscape:pageshadow="2"
     inkscape:zoom="0.15"
     inkscape:cx="2476.7186"
     inkscape:cy="705.76809"
     inkscape:document-units="mm"
     inkscape:current-layer="g992"
     showgrid="false"
     inkscape:window-width="1440"
     inkscape:window-height="798"
     inkscape:window-x="0"
     inkscape:window-y="1"
     inkscape:window-maximized="1"
     fit-margin-top="0"
     fit-margin-left="0"
     fit-margin-right="0"
     fit-margin-bottom="0" />
  <metadata
     id="metadata5">
    <rdf:RDF>
      <cc:Work
         rdf:about="">
        <dc:format>image/svg+xml</dc:format>
        <dc:type
           rdf:resource="http://purl.org/dc/dcmitype/StillImage" />
        <dc:title></dc:title>
      </cc:Work>
    </rdf:RDF>
  </metadata>
  <g
     inkscape:label="Layer 1"
     inkscape:groupmode="layer"
     id="layer1"
     transform="translate(5.2898435,-138.07367)">
    <g
       id="g992"
       clip-path="url(#clipPath994)">
      <g
         transform="translate(187.14846,-237.94861)"
         id="g956">
        <g
           id="g954"
           transform="translate(-1.7638889,313.97222)">
          <path
             sodipodi:nodetypes="csc"
             inkscape:connector-curvature="0"
             id="path998"
             d="M -17.560931,52.172035 C 637.33064,45.974528 577.28607,-8.5931519 709.33872,-7.7989549 805.21328,-7.2223349 818.9935,112.40324 1064.9474,102.15454"
             style="fill:none;stroke:#d5e5ff;stroke-width:80;stroke-linecap:butt;stroke-linejoin:miter;stroke-miterlimit:4;stroke-dasharray:none;stroke-opacity:1" />
          <path
             style="fill:none;stroke:#aaccff;stroke-width:80;stroke-linecap:butt;stroke-linejoin:miter;stroke-miterlimit:4;stroke-dasharray:none;stroke-opacity:1"
             d="M -21.088709,116.90686 C 633.80286,110.70932 573.75829,56.141589 705.81094,56.935786 801.6855,57.512406 815.46572,177.13815 1061.4196,166.88945"
             id="path946"
             inkscape:connector-curvature="0"
             sodipodi:nodetypes="csc" />
          <path
             sodipodi:nodetypes="csc"
             inkscape:connector-curvature="0"
             id="path948"
             d="m -19.32482,175.11532 c 654.89157,-6.19754 594.847,-60.76534 726.89965,-59.97114 95.87456,0.57662 109.65478,120.20243 355.60867,109.95373"
             style="fill:none;stroke:#80b3ff;stroke-width:80;stroke-linecap:butt;stroke-linejoin:miter;stroke-miterlimit:4;stroke-dasharray:none;stroke-opacity:1" />
          <path
             style="fill:none;stroke:#002255;stroke-width:80;stroke-linecap:butt;stroke-linejoin:miter;stroke-miterlimit:4;stroke-dasharray:none;stroke-opacity:1"
             d="m -19.32482,294.17847 c 654.89157,-6.19754 594.847,-60.76534 726.89965,-59.97114 95.87456,0.57662 109.65478,120.20243 355.60867,109.95373"
             id="path950"
             inkscape:connector-curvature="0"
             sodipodi:nodetypes="csc" />
          <path
             sodipodi:nodetypes="csc"
             inkscape:connector-curvature="0"
             id="path952"
             d="m -23.205374,232.61873 c 654.891584,-6.19754 594.847014,-60.76534 726.899664,-59.97114 95.87456,0.57662 109.65478,120.20243 355.60881,109.95373"
             style="fill:none;stroke:#0044aa;stroke-width:80;stroke-linecap:butt;stroke-linejoin:miter;stroke-miterlimit:4;stroke-dasharray:none;stroke-opacity:1" />
        </g>
      </g>
      <g
         clip-path="url(#clipPath960)"
         id="g930"
         transform="translate(158.92623,-261.23193)">
        <g
           transform="translate(-1.7638889,313.97222)"
           id="g944">
          <path
             sodipodi:nodetypes="csc"
             inkscape:connector-curvature="0"
             id="path938"
             d="M -21.088709,116.90686 C 633.80286,110.70932 573.75829,56.141589 705.81094,56.935786 801.6855,57.512406 815.46572,177.13815 1061.4196,166.88945"
             style="fill:none;stroke:#aaccff;stroke-width:80;stroke-linecap:butt;stroke-linejoin:miter;stroke-miterlimit:4;stroke-dasharray:none;stroke-opacity:1" />
          <path
             style="fill:none;stroke:#80b3ff;stroke-width:80;stroke-linecap:butt;stroke-linejoin:miter;stroke-miterlimit:4;stroke-dasharray:none;stroke-opacity:1"
             d="m -19.32482,175.11532 c 654.89157,-6.19754 594.847,-60.76534 726.89965,-59.97114 95.87456,0.57662 109.65478,120.20243 355.60867,109.95373"
             id="path924"
             inkscape:connector-curvature="0"
             sodipodi:nodetypes="csc" />
          <path
             sodipodi:nodetypes="csc"
             inkscape:connector-curvature="0"
             id="path926"
             d="m -19.32482,294.17847 c 654.89157,-6.19754 594.847,-60.76534 726.89965,-59.97114 95.87456,0.57662 109.65478,120.20243 355.60867,109.95373"
             style="fill:none;stroke:#002255;stroke-width:80;stroke-linecap:butt;stroke-linejoin:miter;stroke-miterlimit:4;stroke-dasharray:none;stroke-opacity:1" />
          <path
             style="fill:none;stroke:#0044aa;stroke-width:80;stroke-linecap:butt;stroke-linejoin:miter;stroke-miterlimit:4;stroke-dasharray:none;stroke-opacity:1"
             d="m -23.205374,232.61873 c 654.891584,-6.19754 594.847014,-60.76534 726.899664,-59.97114 95.87456,0.57662 109.65478,120.20243 355.60881,109.95373"
             id="path928"
             inkscape:connector-curvature="0"
             sodipodi:nodetypes="csc" />
        </g>
      </g>
      <g
         clip-path="url(#clipPath934)"
         transform="translate(112.00686,15.874996)"
         id="g912">
        <path
           style="fill:none;stroke:#80b3ff;stroke-width:80;stroke-linecap:butt;stroke-linejoin:miter;stroke-miterlimit:4;stroke-dasharray:none;stroke-opacity:1"
           d="m -19.32482,175.11532 c 654.89157,-6.19754 594.847,-60.76534 726.89965,-59.97114 95.87456,0.57662 109.65478,120.20243 355.60867,109.95373"
           id="path906"
           inkscape:connector-curvature="0"
           sodipodi:nodetypes="csc" />
        <path
           sodipodi:nodetypes="csc"
           inkscape:connector-curvature="0"
           id="path908"
           d="m -19.32482,294.17847 c 654.89157,-6.19754 594.847,-60.76534 726.89965,-59.97114 95.87456,0.57662 109.65478,120.20243 355.60867,109.95373"
           style="fill:none;stroke:#002255;stroke-width:80;stroke-linecap:butt;stroke-linejoin:miter;stroke-miterlimit:4;stroke-dasharray:none;stroke-opacity:1" />
        <path
           style="fill:none;stroke:#0044aa;stroke-width:80;stroke-linecap:butt;stroke-linejoin:miter;stroke-miterlimit:4;stroke-dasharray:none;stroke-opacity:1"
           d="m -23.205374,232.61873 c 654.891584,-6.19754 594.847014,-60.76534 726.899664,-59.97114 95.87456,0.57662 109.65478,120.20243 355.60881,109.95373"
           id="path910"
           inkscape:connector-curvature="0"
           sodipodi:nodetypes="csc" />
      </g>
      <g
         clip-path="url(#clipPath920)"
         id="g904">
        <path
           sodipodi:nodetypes="csc"
           inkscape:connector-curvature="0"
           id="path897"
           d="m -19.32482,175.11532 c 654.89157,-6.19754 594.847,-60.76534 726.89965,-59.97114 95.87456,0.57662 109.65478,120.20243 355.60867,109.95373"
           style="fill:none;stroke:#80b3ff;stroke-width:80;stroke-linecap:butt;stroke-linejoin:miter;stroke-miterlimit:4;stroke-dasharray:none;stroke-opacity:1" />
        <path
           style="fill:none;stroke:#002255;stroke-width:80;stroke-linecap:butt;stroke-linejoin:miter;stroke-miterlimit:4;stroke-dasharray:none;stroke-opacity:1"
           d="m -19.32482,294.17847 c 654.89157,-6.19754 594.847,-60.76534 726.89965,-59.97114 95.87456,0.57662 109.65478,120.20243 355.60867,109.95373"
           id="path895"
           inkscape:connector-curvature="0"
           sodipodi:nodetypes="csc" />
        <path
           sodipodi:nodetypes="csc"
           inkscape:connector-curvature="0"
           id="path881"
           d="m -23.205374,232.61873 c 654.891584,-6.19754 594.847014,-60.76534 726.899664,-59.97114 95.87456,0.57662 109.65478,120.20243 355.60881,109.95373"
           style="fill:none;stroke:#0044aa;stroke-width:80;stroke-linecap:butt;stroke-linejoin:miter;stroke-miterlimit:4;stroke-dasharray:none;stroke-opacity:1" />
      </g>
      <text
         id="text966"
         y="248.49373"
         x="160.41544"
         style="font-style:normal;font-weight:normal;font-size:10.58333302px;line-height:1.25;font-family:sans-serif;letter-spacing:0px;word-spacing:0px;fill:#000000;fill-opacity:1;stroke:none;stroke-width:0.26458332"
         xml:space="preserve"><tspan
           style="font-style:normal;font-variant:normal;font-weight:bold;font-stretch:normal;font-size:50.79999924px;line-height:40;font-family:sans-serif;-inkscape-font-specification:'sans-serif Bold';fill:#ffffff;stroke-width:0.26458332"
           y="248.49373"
           x="160.41544"
           id="tspan964"
           sodipodi:role="line">Devito</tspan></text>
    </g>
    <g
       transform="matrix(0.26458333,0,0,0.26458333,330.58566,-62.498443)"
       id="g1827"
       style="clip-rule:evenodd;fill:#ffffff;fill-rule:evenodd;stroke:#ffffff;stroke-width:18.89763832;stroke-linejoin:round;stroke-miterlimit:1.41420996;stroke-dasharray:none">
      <g
         transform="matrix(1.5600646,0,0,1.5600646,-1258.908,698.68829)"
         id="g1825"
         style="fill:#ffffff;stroke:#ffffff;stroke-width:12.11336899;stroke-miterlimit:1.41420996;stroke-dasharray:none">
        <path
           inkscape:connector-curvature="0"
           d="m 305,243.7 c -2,6.4 -3.9,12.8 -5.9,19.2 1.3,-1 2.7,-2 4,-3.1 -2.9,0.2 -5.8,0.4 -8.6,0.6 -1.7,0.1 -3.7,1.2 -4,3.1 -3.4,20.5 -6.8,41 -10.3,61.5 2.7,0.4 5.4,0.7 8.2,1.1 -2,-36.1 -4,-72.2 -6,-108.2 -0.2,-4.4 -7.5,-6 -8.2,-1.1 -4.3,30.5 -8.6,61 -13,91.5 2.7,0.4 5.4,0.7 8.2,1.1 -1.9,-21.1 -4.3,-42.3 -4.1,-63.5 0.2,-22.2 1.1,-44.4 2,-66.6 0.2,-5.4 -8,-5.3 -8.3,0 -1,16.2 -2.4,32.7 -5.6,48.6 -0.8,4 -1.6,8.1 -3.1,11.9 -1.3,3.2 -1.6,2.4 -3.1,4 -2.8,3.1 -3.4,5.7 -4,9.8 -2.2,16.1 -1.8,32.8 -1.8,49 0,21.1 0.3,42.1 0.8,63.2 0.3,12.5 0.6,24.9 1,37.4 2.7,-0.4 5.4,-0.7 8.2,-1.1 -8.2,-42.2 -13.4,-85.7 -13.4,-128.7 0,-37.4 3.7,-75 6.2,-112.3 0.8,-12.2 1.7,-24.4 2.5,-36.6 0.3,-4.7 -7.2,-5.7 -8.2,-1.1 -7.8,35 -14.7,70.4 -19.3,105.9 -3.6,27.9 -3,55.7 -2,83.7 1.2,32.9 3.3,65.7 6.3,98.5 1.5,16.4 3.1,32.7 5.2,49 2.7,-0.4 5.4,-0.7 8.2,-1.1 -11.2,-28.2 -16.7,-59.4 -20.8,-89.3 -9.6,-70.9 -5.2,-142.9 4.1,-213.5 2.5,-18.7 5.2,-37.5 8.9,-56.1 1,-5.2 -6.4,-7.4 -8,-2.2 -9.6,29.9 -17.4,60.6 -23.5,91.5 -8.4,42 -8.6,84 -12.2,126.5 2.7,-0.4 5.4,-0.7 8.2,-1.1 -3,-8.3 -6,-16.5 -9,-24.8 -0.7,-1.8 -2.1,-3 -4,-3.1 -2.4,-0.1 -4.8,-0.1 -7.1,-0.2 1.4,1.4 2.8,2.8 4.2,4.2 -0.4,-12.6 -0.9,-25.3 -1.3,-37.9 -0.2,-4.3 -5.4,-5.4 -7.8,-2.1 -2.6,3.7 -5.2,7.4 -7.9,11.1 1.2,-0.7 2.4,-1.4 3.6,-2.1 -3.8,-0.1 -7.6,-0.3 -11.4,-0.4 -5.4,-0.2 -5.4,8.1 0,8.3 4.3,0.1 10.6,1.7 14.3,-0.8 3.4,-2.4 6.1,-8.5 8.5,-11.9 -2.6,-0.7 -5.2,-1.4 -7.8,-2.1 0.4,12.6 0.9,25.3 1.3,37.9 0.1,2.3 1.8,4.1 4.2,4.2 2.4,0.1 4.8,0.1 7.1,0.2 -1.3,-1 -2.7,-2 -4,-3.1 3,8.3 6,16.5 9,24.8 1.6,4.5 7.8,3.6 8.2,-1.1 1.5,-18.1 2.6,-36.3 3.1,-54.5 0.7,-24.4 4.4,-48.5 9.3,-72.4 6.1,-29.9 13.6,-59.8 23,-88.9 -2.7,-0.7 -5.4,-1.5 -8,-2.2 -9.8,49.6 -15.3,100.5 -17.8,150.9 -3,60.6 0.8,122 15.9,180.9 2.7,10.6 5.6,21.3 9.6,31.4 1.6,3.9 8.8,4 8.2,-1.1 -5.5,-43.2 -8.7,-86.7 -10.7,-130.2 -1.4,-29.7 -3.2,-59.9 -0.1,-89.5 2.5,-24 6.8,-47.9 11.4,-71.6 2.8,-14.6 5.8,-29.2 9,-43.7 -2.7,-0.4 -5.4,-0.7 -8.2,-1.1 -2.2,30.6 -4.3,61.2 -6.2,91.9 -2.8,46 -2.7,91 3.1,136.9 2.2,17.1 4.7,34.2 7.9,51.1 0.9,4.6 8.3,3.5 8.2,-1.1 -1,-30.8 -1.7,-61.7 -1.8,-92.5 -0.1,-17.6 -0.4,-35.4 1.3,-53 0.2,-1.7 1.2,-4.6 0.9,-6.3 -0.1,-0.3 0.6,-2.1 0.4,-1.4 -0.2,0.6 -2.2,2.4 0.3,0.5 5.1,-3.8 6.6,-11.4 7.9,-17.2 4.1,-17.8 5.6,-36.4 6.7,-55.4 -2.8,0 -5.5,0 -8.3,0 -0.9,23 -1.9,45 -2,67.2 -0.2,21.2 2.2,42.8 4.1,63.8 0.4,4.3 7.5,6.3 8.2,1.3 4.3,-30.5 8.6,-60.9 13,-91.4 -2.7,-0.4 -5.4,-0.7 -8.2,-1.1 2,36.1 4,72.2 6,108.3 0.2,4.4 7.4,6 8.2,1.1 3.4,-20.5 6.8,-41 10.3,-61.5 -1.3,1 -2.7,2 -4,3.1 2.9,-0.2 5.8,-0.4 8.6,-0.6 1.9,-0.1 3.4,-1.2 4,-3.1 2,-6.4 3.9,-12.8 5.9,-19.2 1.6,-5 -6.4,-7.2 -7.9,-2 z"
           style="fill:#ffffff;fill-rule:nonzero;stroke:#ffffff;stroke-width:12.11336899;stroke-miterlimit:1.41420996;stroke-dasharray:none"
           id="path1823" />
      </g>
    </g>
    <g
       style="clip-rule:evenodd;fill-rule:evenodd;stroke-linejoin:round;stroke-miterlimit:1.41420996"
       id="g1799"
       transform="matrix(0.26458333,0,0,0.26458333,331.11483,-62.498443)">
      <g
         id="g1778"
         transform="matrix(1.5600646,0,0,1.5600646,-1258.908,698.68829)">
        <path
           id="path1776"
           style="fill:#55c6a3;fill-rule:nonzero"
           d="m 305,243.7 c -2,6.4 -3.9,12.8 -5.9,19.2 1.3,-1 2.7,-2 4,-3.1 -2.9,0.2 -5.8,0.4 -8.6,0.6 -1.7,0.1 -3.7,1.2 -4,3.1 -3.4,20.5 -6.8,41 -10.3,61.5 2.7,0.4 5.4,0.7 8.2,1.1 -2,-36.1 -4,-72.2 -6,-108.2 -0.2,-4.4 -7.5,-6 -8.2,-1.1 -4.3,30.5 -8.6,61 -13,91.5 2.7,0.4 5.4,0.7 8.2,1.1 -1.9,-21.1 -4.3,-42.3 -4.1,-63.5 0.2,-22.2 1.1,-44.4 2,-66.6 0.2,-5.4 -8,-5.3 -8.3,0 -1,16.2 -2.4,32.7 -5.6,48.6 -0.8,4 -1.6,8.1 -3.1,11.9 -1.3,3.2 -1.6,2.4 -3.1,4 -2.8,3.1 -3.4,5.7 -4,9.8 -2.2,16.1 -1.8,32.8 -1.8,49 0,21.1 0.3,42.1 0.8,63.2 0.3,12.5 0.6,24.9 1,37.4 2.7,-0.4 5.4,-0.7 8.2,-1.1 -8.2,-42.2 -13.4,-85.7 -13.4,-128.7 0,-37.4 3.7,-75 6.2,-112.3 0.8,-12.2 1.7,-24.4 2.5,-36.6 0.3,-4.7 -7.2,-5.7 -8.2,-1.1 -7.8,35 -14.7,70.4 -19.3,105.9 -3.6,27.9 -3,55.7 -2,83.7 1.2,32.9 3.3,65.7 6.3,98.5 1.5,16.4 3.1,32.7 5.2,49 2.7,-0.4 5.4,-0.7 8.2,-1.1 -11.2,-28.2 -16.7,-59.4 -20.8,-89.3 -9.6,-70.9 -5.2,-142.9 4.1,-213.5 2.5,-18.7 5.2,-37.5 8.9,-56.1 1,-5.2 -6.4,-7.4 -8,-2.2 -9.6,29.9 -17.4,60.6 -23.5,91.5 -8.4,42 -8.6,84 -12.2,126.5 2.7,-0.4 5.4,-0.7 8.2,-1.1 -3,-8.3 -6,-16.5 -9,-24.8 -0.7,-1.8 -2.1,-3 -4,-3.1 -2.4,-0.1 -4.8,-0.1 -7.1,-0.2 1.4,1.4 2.8,2.8 4.2,4.2 -0.4,-12.6 -0.9,-25.3 -1.3,-37.9 -0.2,-4.3 -5.4,-5.4 -7.8,-2.1 -2.6,3.7 -5.2,7.4 -7.9,11.1 1.2,-0.7 2.4,-1.4 3.6,-2.1 -3.8,-0.1 -7.6,-0.3 -11.4,-0.4 -5.4,-0.2 -5.4,8.1 0,8.3 4.3,0.1 10.6,1.7 14.3,-0.8 3.4,-2.4 6.1,-8.5 8.5,-11.9 -2.6,-0.7 -5.2,-1.4 -7.8,-2.1 0.4,12.6 0.9,25.3 1.3,37.9 0.1,2.3 1.8,4.1 4.2,4.2 2.4,0.1 4.8,0.1 7.1,0.2 -1.3,-1 -2.7,-2 -4,-3.1 3,8.3 6,16.5 9,24.8 1.6,4.5 7.8,3.6 8.2,-1.1 1.5,-18.1 2.6,-36.3 3.1,-54.5 0.7,-24.4 4.4,-48.5 9.3,-72.4 6.1,-29.9 13.6,-59.8 23,-88.9 -2.7,-0.7 -5.4,-1.5 -8,-2.2 -9.8,49.6 -15.3,100.5 -17.8,150.9 -3,60.6 0.8,122 15.9,180.9 2.7,10.6 5.6,21.3 9.6,31.4 1.6,3.9 8.8,4 8.2,-1.1 -5.5,-43.2 -8.7,-86.7 -10.7,-130.2 -1.4,-29.7 -3.2,-59.9 -0.1,-89.5 2.5,-24 6.8,-47.9 11.4,-71.6 2.8,-14.6 5.8,-29.2 9,-43.7 -2.7,-0.4 -5.4,-0.7 -8.2,-1.1 -2.2,30.6 -4.3,61.2 -6.2,91.9 -2.8,46 -2.7,91 3.1,136.9 2.2,17.1 4.7,34.2 7.9,51.1 0.9,4.6 8.3,3.5 8.2,-1.1 -1,-30.8 -1.7,-61.7 -1.8,-92.5 -0.1,-17.6 -0.4,-35.4 1.3,-53 0.2,-1.7 1.2,-4.6 0.9,-6.3 -0.1,-0.3 0.6,-2.1 0.4,-1.4 -0.2,0.6 -2.2,2.4 0.3,0.5 5.1,-3.8 6.6,-11.4 7.9,-17.2 4.1,-17.8 5.6,-36.4 6.7,-55.4 -2.8,0 -5.5,0 -8.3,0 -0.9,23 -1.9,45 -2,67.2 -0.2,21.2 2.2,42.8 4.1,63.8 0.4,4.3 7.5,6.3 8.2,1.3 4.3,-30.5 8.6,-60.9 13,-91.4 -2.7,-0.4 -5.4,-0.7 -8.2,-1.1 2,36.1 4,72.2 6,108.3 0.2,4.4 7.4,6 8.2,1.1 3.4,-20.5 6.8,-41 10.3,-61.5 -1.3,1 -2.7,2 -4,3.1 2.9,-0.2 5.8,-0.4 8.6,-0.6 1.9,-0.1 3.4,-1.2 4,-3.1 2,-6.4 3.9,-12.8 5.9,-19.2 1.6,-5 -6.4,-7.2 -7.9,-2 z"
           inkscape:connector-curvature="0" />
      </g>
    </g>
  </g>
</svg>
