<?xml version="1.0" encoding="UTF-8" standalone="no"?>
<!DOCTYPE svg PUBLIC "-//W3C//DTD SVG 1.1//EN" "http://www.w3.org/Graphics/SVG/1.1/DTD/svg11.dtd">
<svg width="100%" height="100%" viewBox="0 0 960 560" version="1.1" xmlns="http://www.w3.org/2000/svg" xmlns:xlink="http://www.w3.org/1999/xlink" xml:space="preserve" xmlns:serif="http://www.serif.com/" style="fill-rule:evenodd;clip-rule:evenodd;stroke-linejoin:round;stroke-miterlimit:1.41421;">
    <g transform="matrix(1,0,0,1,-137.25,4.48476)">
        <path d="M305,243.7C303,250.1 301.1,256.5 299.1,262.9C300.4,261.9 301.8,260.9 303.1,259.8C300.2,260 297.3,260.2 294.5,260.4C292.8,260.5 290.8,261.6 290.5,263.5C287.1,284 283.7,304.5 280.2,325C282.9,325.4 285.6,325.7 288.4,326.1C286.4,290 284.4,253.9 282.4,217.9C282.2,213.5 274.9,211.9 274.2,216.8C269.9,247.3 265.6,277.8 261.2,308.3C263.9,308.7 266.6,309 269.4,309.4C267.5,288.3 265.1,267.1 265.3,245.9C265.5,223.7 266.4,201.5 267.3,179.3C267.5,173.9 259.3,174 259,179.3C258,195.5 256.6,212 253.4,227.9C252.6,231.9 251.8,236 250.3,239.8C249,243 248.7,242.2 247.2,243.8C244.4,246.9 243.8,249.5 243.2,253.6C241,269.7 241.4,286.4 241.4,302.6C241.4,323.7 241.7,344.7 242.2,365.8C242.5,378.3 242.8,390.7 243.2,403.2C245.9,402.8 248.6,402.5 251.4,402.1C243.2,359.9 238,316.4 238,273.4C238,236 241.7,198.4 244.2,161.1C245,148.9 245.9,136.7 246.7,124.5C247,119.8 239.5,118.8 238.5,123.4C230.7,158.4 223.8,193.8 219.2,229.3C215.6,257.2 216.2,285 217.2,313C218.4,345.9 220.5,378.7 223.5,411.5C225,427.9 226.6,444.2 228.7,460.5C231.4,460.1 234.1,459.8 236.9,459.4C225.7,431.2 220.2,400 216.1,370.1C206.5,299.2 210.9,227.2 220.2,156.6C222.7,137.9 225.4,119.1 229.1,100.5C230.1,95.3 222.7,93.1 221.1,98.3C211.5,128.2 203.7,158.9 197.6,189.8C189.2,231.8 189,273.8 185.4,316.3C188.1,315.9 190.8,315.6 193.6,315.2C190.6,306.9 187.6,298.7 184.6,290.4C183.9,288.6 182.5,287.4 180.6,287.3C178.2,287.2 175.8,287.2 173.5,287.1C174.9,288.5 176.3,289.9 177.7,291.3C177.3,278.7 176.8,266 176.4,253.4C176.2,249.1 171,248 168.6,251.3C166,255 163.4,258.7 160.7,262.4C161.9,261.7 163.1,261 164.3,260.3C160.5,260.2 156.7,260 152.9,259.9C147.5,259.7 147.5,268 152.9,268.2C157.2,268.3 163.5,269.9 167.2,267.4C170.6,265 173.3,258.9 175.7,255.5C173.1,254.8 170.5,254.1 167.9,253.4C168.3,266 168.8,278.7 169.2,291.3C169.3,293.6 171,295.4 173.4,295.5C175.8,295.6 178.2,295.6 180.5,295.7C179.2,294.7 177.8,293.7 176.5,292.6C179.5,300.9 182.5,309.1 185.5,317.4C187.1,321.9 193.3,321 193.7,316.3C195.2,298.2 196.3,280 196.8,261.8C197.5,237.4 201.2,213.3 206.1,189.4C212.2,159.5 219.7,129.6 229.1,100.5C226.4,99.8 223.7,99 221.1,98.3C211.3,147.9 205.8,198.8 203.3,249.2C200.3,309.8 204.1,371.2 219.2,430.1C221.9,440.7 224.8,451.4 228.8,461.5C230.4,465.4 237.6,465.5 237,460.4C231.5,417.2 228.3,373.7 226.3,330.2C224.9,300.5 223.1,270.3 226.2,240.7C228.7,216.7 233,192.8 237.6,169.1C240.4,154.5 243.4,139.9 246.6,125.4C243.9,125 241.2,124.7 238.4,124.3C236.2,154.9 234.1,185.5 232.2,216.2C229.4,262.2 229.5,307.2 235.3,353.1C237.5,370.2 240,387.3 243.2,404.2C244.1,408.8 251.5,407.7 251.4,403.1C250.4,372.3 249.7,341.4 249.6,310.6C249.5,293 249.2,275.2 250.9,257.6C251.1,255.9 252.1,253 251.8,251.3C251.7,251 252.4,249.2 252.2,249.9C252,250.5 250,252.3 252.5,250.4C257.6,246.6 259.1,239 260.4,233.2C264.5,215.4 266,196.8 267.1,177.8C264.3,177.8 261.6,177.8 258.8,177.8C257.9,200.8 256.9,222.8 256.8,245C256.6,266.2 259,287.8 260.9,308.8C261.3,313.1 268.4,315.1 269.1,310.1C273.4,279.6 277.7,249.2 282.1,218.7C279.4,218.3 276.7,218 273.9,217.6C275.9,253.7 277.9,289.8 279.9,325.9C280.1,330.3 287.3,331.9 288.1,327C291.5,306.5 294.9,286 298.4,265.5C297.1,266.5 295.7,267.5 294.4,268.6C297.3,268.4 300.2,268.2 303,268C304.9,267.9 306.4,266.8 307,264.9C309,258.5 310.9,252.1 312.9,245.7C314.5,240.7 306.5,238.5 305,243.7Z" style="fill:rgb(85,198,163);fill-rule:nonzero;"/>
    </g>
    <g>
        <g transform="matrix(1,0,0,1,-153.945,18.4329)">
            <text x="326.521px" y="287.103px" style="font-family:'LucidaGrande', 'Lucida Grande', sans-serif;font-weight:500;font-size:144px;">DEVITO</text>
        </g>
    </g>
</svg>
