<?xml version="1.0" encoding="utf-8"?>
<!-- Generator: Adobe Illustrator 18.1.1, SVG Export Plug-In . SVG Version: 6.00 Build 0)  -->
<!DOCTYPE svg PUBLIC "-//W3C//DTD SVG 1.1//EN" "http://www.w3.org/Graphics/SVG/1.1/DTD/svg11.dtd">
<svg version="1.1" id="Design" xmlns="http://www.w3.org/2000/svg" xmlns:xlink="http://www.w3.org/1999/xlink" x="0px" y="0px"
	 viewBox="0 0 960 560" enable-background="new 0 0 960 560" xml:space="preserve">
<path fill="#55C6A3" d="M305,243.7c-2,6.4-3.9,12.8-5.9,19.2c1.3-1,2.7-2,4-3.1c-2.9,0.2-5.8,0.4-8.6,0.6c-1.7,0.1-3.7,1.2-4,3.1
	c-3.4,20.5-6.8,41-10.3,61.5c2.7,0.4,5.4,0.7,8.2,1.1c-2-36.1-4-72.2-6-108.2c-0.2-4.4-7.5-6-8.2-1.1c-4.3,30.5-8.6,61-13,91.5
	c2.7,0.4,5.4,0.7,8.2,1.1c-1.9-21.1-4.3-42.3-4.1-63.5c0.2-22.2,1.1-44.4,2-66.6c0.2-5.4-8-5.3-8.3,0c-1,16.2-2.4,32.7-5.6,48.6
	c-0.8,4-1.6,8.1-3.1,11.9c-1.3,3.2-1.6,2.4-3.1,4c-2.8,3.1-3.4,5.7-4,9.8c-2.2,16.1-1.8,32.8-1.8,49c0,21.1,0.3,42.1,0.8,63.2
	c0.3,12.5,0.6,24.9,1,37.4c2.7-0.4,5.4-0.7,8.2-1.1c-8.2-42.2-13.4-85.7-13.4-128.7c0-37.4,3.7-75,6.2-112.3
	c0.8-12.2,1.7-24.4,2.5-36.6c0.3-4.7-7.2-5.7-8.2-1.1c-7.8,35-14.7,70.4-19.3,105.9c-3.6,27.9-3,55.7-2,83.7
	c1.2,32.9,3.3,65.7,6.3,98.5c1.5,16.4,3.1,32.7,5.2,49c2.7-0.4,5.4-0.7,8.2-1.1c-11.2-28.2-16.7-59.4-20.8-89.3
	c-9.6-70.9-5.2-142.9,4.1-213.5c2.5-18.7,5.2-37.5,8.9-56.1c1-5.2-6.4-7.4-8-2.2c-9.6,29.9-17.4,60.6-23.5,91.5
	c-8.4,42-8.6,84-12.2,126.5c2.7-0.4,5.4-0.7,8.2-1.1c-3-8.3-6-16.5-9-24.8c-0.7-1.8-2.1-3-4-3.1c-2.4-0.1-4.8-0.1-7.1-0.2
	c1.4,1.4,2.8,2.8,4.2,4.2c-0.4-12.6-0.9-25.3-1.3-37.9c-0.2-4.3-5.4-5.4-7.8-2.1c-2.6,3.7-5.2,7.4-7.9,11.1c1.2-0.7,2.4-1.4,3.6-2.1
	c-3.8-0.1-7.6-0.3-11.4-0.4c-5.4-0.2-5.4,8.1,0,8.3c4.3,0.1,10.6,1.7,14.3-0.8c3.4-2.4,6.1-8.5,8.5-11.9c-2.6-0.7-5.2-1.4-7.8-2.1
	c0.4,12.6,0.9,25.3,1.3,37.9c0.1,2.3,1.8,4.1,4.2,4.2c2.4,0.1,4.8,0.1,7.1,0.2c-1.3-1-2.7-2-4-3.1c3,8.3,6,16.5,9,24.8
	c1.6,4.5,7.8,3.6,8.2-1.1c1.5-18.1,2.6-36.3,3.1-54.5c0.7-24.4,4.4-48.5,9.3-72.4c6.1-29.9,13.6-59.8,23-88.9
	c-2.7-0.7-5.4-1.5-8-2.2c-9.8,49.6-15.3,100.5-17.8,150.9c-3,60.6,0.8,122,15.9,180.9c2.7,10.6,5.6,21.3,9.6,31.4
	c1.6,3.9,8.8,4,8.2-1.1c-5.5-43.2-8.7-86.7-10.7-130.2c-1.4-29.7-3.2-59.9-0.1-89.5c2.5-24,6.8-47.9,11.4-71.6
	c2.8-14.6,5.8-29.2,9-43.7c-2.7-0.4-5.4-0.7-8.2-1.1c-2.2,30.6-4.3,61.2-6.2,91.9c-2.8,46-2.7,91,3.1,136.9
	c2.2,17.1,4.7,34.2,7.9,51.1c0.9,4.6,8.3,3.5,8.2-1.1c-1-30.8-1.7-61.7-1.8-92.5c-0.1-17.6-0.4-35.4,1.3-53c0.2-1.7,1.2-4.6,0.9-6.3
	c-0.1-0.3,0.6-2.1,0.4-1.4c-0.2,0.6-2.2,2.4,0.3,0.5c5.1-3.8,6.6-11.4,7.9-17.2c4.1-17.8,5.6-36.4,6.7-55.4c-2.8,0-5.5,0-8.3,0
	c-0.9,23-1.9,45-2,67.2c-0.2,21.2,2.2,42.8,4.1,63.8c0.4,4.3,7.5,6.3,8.2,1.3c4.3-30.5,8.6-60.9,13-91.4c-2.7-0.4-5.4-0.7-8.2-1.1
	c2,36.1,4,72.2,6,108.3c0.2,4.4,7.4,6,8.2,1.1c3.4-20.5,6.8-41,10.3-61.5c-1.3,1-2.7,2-4,3.1c2.9-0.2,5.8-0.4,8.6-0.6
	c1.9-0.1,3.4-1.2,4-3.1c2-6.4,3.9-12.8,5.9-19.2C314.5,240.7,306.5,238.5,305,243.7L305,243.7z"/>
<g>
	<path d="M411.8,272.8c-0.1,18.6-11.7,36.8-36.1,36.8c-24.4,0-36.2-18.1-36.2-36.8c0-20.7,13.8-37,36.3-37
		C399.9,235.8,411.9,254,411.8,272.8z M375.8,243.9c-18.1,0-27.5,13.3-27.5,28.9c0,14.4,8.7,28.5,27.5,28.5
		c18.7,0,27.2-14.4,27.2-28.5C403,258.3,394.4,244.1,375.8,243.9z"/>
	<path d="M450.2,308.2h-8.7V237h32.4c32.8,0,32.8,48.1,0,48.2h-23.6V308.2z M473.8,245.2h-23.6v31.7h23.6
		C494.8,276.9,494.8,245.2,473.8,245.2z"/>
	<path d="M526.3,237h50.1v8.1h-41.3v22.3h39.6v8.2h-39.6v24.1H578v8.4h-51.7V237z"/>
	<path d="M631.7,243.4c-9.1,0-18.7,3.6-18.7,12.2c0,7.7,8.9,10,19.3,11.7c14.2,2.2,28.3,5.1,28.3,21.2c-0.1,16-15.4,21.2-29,21.2
		c-12.6,0-24.6-4.6-30.1-16.5l7.3-4.3c4.6,8.4,14.1,12.5,22.9,12.5c8.6,0,20.1-2.7,20.1-13.2c0.1-8.9-9.9-11.4-20.5-13
		c-13.7-2.1-27.1-5.3-27.1-19.7c-0.2-14.9,15-19.9,27.3-19.9c10.6,0,20.7,2.1,27,12.9l-6.7,4.2C647.9,246.3,639.6,243.5,631.7,243.4
		z"/>
	<path d="M722.6,309.3c-25.1,0-37-17.4-37.1-36.3c-0.2-18.8,12.1-37.1,37.1-37.1c9.5,0,18.8,3.6,26,10.7l-6.1,5.7
		c-5.5-5.4-12.7-7.9-19.9-7.9c-19.1,0-28.4,13.8-28.3,28.6c0.2,14.4,9.1,28,28.3,28c7.2,0,14.9-2.8,20.2-8.2l6.2,6.1
		C741.9,305.8,732.4,309.3,722.6,309.3z"/>
	<path d="M777.4,237h8.9v71.2h-8.9V237z"/>
</g>
</svg>
